# xmcd
#
# Track frame offsets:
#	150
#	19518
#	35587
#	53741
#	70691
#	89296
#	107921
#	122459
#	136528
#	152490
#	175253
#	192223
#	204797
#	219148
#	233634
#	247664
#	264620
#	283729
#	297437
#
# Disc length: 4211 seconds
#
# Revision: 0
# Processed by: cddbd v1.4PL0 Copyright (c) Steve Scherf et al.
# Submitted via: EasyCDDAExtractor 5.0.5.1
#
DISCID=f7107113
DTITLE=Various Artist - Jednoj zeni
DYEAR=1900
DGENRE=Pop
TTITLE0=Zlatko Manojlovic - Jednoj zeni
TTITLE1=Kico Slabinac - Plavusa
TTITLE2=Dragan Stojnic - Jedan covek, jedna zena
TTITLE3=Kemal Monteno - Hiljade pahulja belih
TTITLE4=Miki Jevremovic - Pijem a ne znam cemu sve to
TTITLE5=Indexi - Sanjam
TTITLE6=Zdravko Colic - Tvoje oci
TTITLE7=Oliver Dragojevic - Sta to bjese ljubav
TTITLE8=Miso Kovac - Proplakat ce zora
TTITLE9=Zlatko Pejakovic - Cerge
TTITLE10=Boba Stefanovic - Kazu mi da jos si uvek sama
TTITLE11=Vladimir Savcic Cobi - Nemoj draga plakati
TTITLE12=Indexi - Ti si mi bila naj, naj
TTITLE13=Kemal Monteno - Tajna zena
TTITLE14=Dragan Stojnic - Bila je tako lijepa
TTITLE15=Miki Jevremovic - Ako nekad vidis Mariju
TTITLE16=Zlatko Pejakovic - Zbog jedne divne crne zene
TTITLE17=Boba Stefanovic - Obrisi suze draga
TTITLE18=Djordje Marjanovic - Ta tuzna muzika
EXTD=
EXTT0=
EXTT1=
EXTT2=
EXTT3=
EXTT4=
EXTT5=
EXTT6=
EXTT7=
EXTT8=
EXTT9=
EXTT10=
EXTT11=
EXTT12=
EXTT13=
EXTT14=
EXTT15=
EXTT16=
EXTT17=
EXTT18=
PLAYORDER=
